<svg viewBox="-640 -357.5 1280 715" width="1280" height="715" style="background-color: rgb(255, 255, 255);" xmlns="http://www.w3.org/2000/svg"><path d="M248.24412170997368,-65.35227569979378L248.24412170997368,30.968387141148348M248.24412170997368,30.968387141148348L223.4228739832956,32.51422503791009M248.24412170997368,30.968387141148348L263.51954197181453,33.480241134236856M248.24412170997368,-65.35227569979378L223.4228739832956,-63.80643780303205M248.24412170997368,-65.35227569979378L263.51954197181453,-62.84042170670528" style="fill:none;stroke:rgb(0,0,0);stroke-width:1;stroke-linecap:round"></path><path d="M263.51954197181453,33.480241134236856L248.24412170997368,30.968387141148348L248.24412170997368,-65.35227569979378zM248.24412170997368,-65.35227569979378L248.24412170997368,30.968387141148348L223.4228739832956,-63.80643780303205zM248.24412170997368,30.968387141148348L223.4228739832956,32.51422503791009L223.4228739832956,-63.80643780303205z" style="fill:rgb(238,238,238); fill-opacity: 0.54"></path><path d="M223.4228739832956,-63.80643780303205L223.4228739832956,32.51422503791009M223.4228739832956,32.51422503791009L238.69829424513648,35.026079030998595" style="fill:none;stroke:rgb(0,0,0);stroke-width:1;stroke-linecap:round"></path><path d="M238.69829424513648,35.026079030998595L223.4228739832956,32.51422503791009L248.24412170997368,30.968387141148348zM263.51954197181453,33.480241134236856L238.69829424513648,35.026079030998595L248.24412170997368,30.968387141148348zM263.51954197181453,-62.84042170670528L263.51954197181453,33.480241134236856L248.24412170997368,-65.35227569979378zM263.51954197181453,-62.84042170670528L248.24412170997368,-65.35227569979378L223.4228739832956,-63.80643780303205z" style="fill:rgb(238,238,238); fill-opacity: 0.54"></path><path d="M238.69829424513648,35.026079030998595L263.51954197181453,33.480241134236856M263.51954197181453,-62.84042170670528L263.51954197181453,33.480241134236856M223.4228739832956,-63.80643780303205L238.69829424513648,-61.29458380994354" style="fill:none;stroke:rgb(0,0,0);stroke-width:1;stroke-linecap:round"></path><path d="M223.4228739832956,-63.80643780303205L223.4228739832956,32.51422503791009L238.69829424513648,-61.29458380994354z" style="fill:rgb(238,238,238); fill-opacity: 0.54"></path><path d="M117.9515069793409,-69.13658308975194L117.9515069793409,41.25923290601064M117.9515069793409,41.25923290601064L-6.154735069108845,48.98842260250518M117.9515069793409,41.25923290601064L176.11045379267952,50.82275261825336" style="fill:none;stroke:rgb(0,0,0);stroke-width:1;stroke-linecap:round"></path><path d="M238.69829424513648,35.026079030998595L263.51954197181453,33.480241134236856L263.51954197181453,-62.84042170670528z" style="fill:rgb(238,238,238); fill-opacity: 0.54"></path><path d="M238.69829424513648,-61.29458380994354L263.51954197181453,-62.84042170670528" style="fill:none;stroke:rgb(0,0,0);stroke-width:1;stroke-linecap:round"></path><path d="M223.4228739832956,32.51422503791009L238.69829424513648,35.026079030998595L238.69829424513648,-61.29458380994354zM238.69829424513648,-61.29458380994354L263.51954197181453,-62.84042170670528L223.4228739832956,-63.80643780303205z" style="fill:rgb(238,238,238); fill-opacity: 0.54"></path><path d="M238.69829424513648,-61.29458380994354L238.69829424513648,35.026079030998595" style="fill:none;stroke:rgb(0,0,0);stroke-width:1;stroke-linecap:round"></path><path d="M238.69829424513648,-61.29458380994354L238.69829424513648,35.026079030998595L263.51954197181453,-62.84042170670528z" style="fill:rgb(238,238,238); fill-opacity: 0.54"></path><path d="M117.9515069793409,-69.13658308975194L-6.154735069108845,-61.40739339325739M117.9515069793409,-69.13658308975194L176.11045379267952,-59.57306337750921" style="fill:none;stroke:rgb(0,0,0);stroke-width:1;stroke-linecap:round"></path><path d="M200.3682716759772,-21.673495627616276L198.36684908629564,-10.310335586439233L203.60664112072516,-12.680380347620275zM198.36684908629564,-10.310335586439233L203.60664112072516,-2.222496968435256L203.60664112072516,-12.680380347620275zM208.84643315515467,-8.58709755841407L203.60664112072516,-2.222496968435256L227.47963505776272,-14.167162121985772zM206.8450105654731,-20.608475997196546L208.84643315515467,-8.58709755841407L227.47963505776272,-14.167162121985772z" style="fill:rgb(0,0,0)"></path><path d="M163.02255142776121,-10.152851331198928L203.60664112072513,-12.680380347620277" style="fill:none;stroke:rgb(0,0,0);stroke-width:1;stroke-linecap:round"></path><path d="M206.8450105654731,-20.608475997196546L200.3682716759772,-21.673495627616276L203.60664112072516,-12.680380347620275zM203.60664112072516,-2.222496968435256L208.84643315515467,-8.58709755841407L203.60664112072516,-12.680380347620275zM208.84643315515467,-8.58709755841407L206.8450105654731,-20.608475997196546L203.60664112072516,-12.680380347620275z" style="fill:rgb(0,0,0)"></path><path d="M117.9515069793409,-69.13658308975192L117.9515069793409,41.259232906010645L-6.154735069108851,-61.40739339325739zM176.11045379267955,50.82275261825337L117.9515069793409,41.259232906010645L117.9515069793409,-69.13658308975192zM117.9515069793409,41.259232906010645L-6.154735069108851,48.98842260250518L-6.154735069108851,-61.40739339325739zM176.11045379267955,-59.5730633775092L117.9515069793409,-69.13658308975192L-6.154735069108851,-61.40739339325739zM176.11045379267955,-59.5730633775092L176.11045379267955,50.82275261825337L117.9515069793409,-69.13658308975192z" style="fill:rgb(238,238,238); fill-opacity: 0.54"></path><path d="M-6.154735069108845,-61.40739339325739L-6.154735069108845,48.98842260250518M-6.154735069108845,48.98842260250518L52.00421174422978,58.551942314747905" style="fill:none;stroke:rgb(0,0,0);stroke-width:1;stroke-linecap:round"></path><path d="M52.004211744229785,58.551942314747905L-6.154735069108851,48.98842260250518L117.9515069793409,41.259232906010645z" style="fill:rgb(238,238,238); fill-opacity: 0.54"></path><path d="M-6.154735069108845,-61.40739339325739L52.00421174422978,-51.843873681014664" style="fill:none;stroke:rgb(0,0,0);stroke-width:1;stroke-linecap:round"></path><path d="M176.11045379267955,50.82275261825337L52.004211744229785,58.551942314747905L117.9515069793409,41.259232906010645z" style="fill:rgb(238,238,238); fill-opacity: 0.54"></path><path d="M52.00421174422978,58.551942314747905L176.11045379267952,50.82275261825336M176.11045379267952,-59.57306337750921L176.11045379267952,50.82275261825336M52.00421174422978,-51.843873681014664L176.11045379267952,-59.57306337750921M-85.41142394584844,-72.70067782233262L-85.41142394584844,66.69054377936588M-85.41142394584844,66.69054377936588L-184.6964148525609,72.87389536641285M-85.41142394584844,66.69054377936588L-11.977058972354726,78.76591713910086" style="fill:none;stroke:rgb(0,0,0);stroke-width:1;stroke-linecap:round"></path><path d="M-6.154735069108851,-61.40739339325739L-6.154735069108851,48.98842260250518L52.004211744229785,-51.843873681014664z" style="fill:rgb(238,238,238); fill-opacity: 0.54"></path><path d="M-85.41142394584844,-72.70067782233262L-184.6964148525609,-66.51732623528567M-85.41142394584844,-72.70067782233262L-11.977058972354726,-60.62530446259765" style="fill:none;stroke:rgb(0,0,0);stroke-width:1;stroke-linecap:round"></path><path d="M52.004211744229785,58.551942314747905L176.11045379267955,50.82275261825337L176.11045379267955,-59.5730633775092zM52.004211744229785,-51.843873681014664L176.11045379267955,-59.5730633775092L-6.154735069108851,-61.40739339325739zM-85.41142394584844,-72.70067782233261L-85.41142394584844,66.6905437793659L-184.6964148525609,-66.51732623528567zM-6.154735069108851,48.98842260250518L52.004211744229785,58.551942314747905L52.004211744229785,-51.843873681014664z" style="fill:rgb(238,238,238); fill-opacity: 0.54"></path><path d="M-48.54991026794333,-12.233007110794157L33.511206411364505,8.0821155173976M-48.54991026794333,37.96483310929394L33.511206411364505,8.0821155173976M-22.104581930633657,42.313440377962486L33.511206411364505,8.0821155173976M-22.104581930633657,-7.884399842125611L33.511206411364505,8.0821155173976" style="fill:none;stroke:rgb(0,0,0);stroke-width:1;stroke-linecap:round"></path><path d="M-11.977058972354733,78.76591713910086L-85.41142394584844,66.6905437793659L-85.41142394584844,-72.70067782233261zM-85.41142394584844,66.6905437793659L-184.6964148525609,72.87389536641285L-184.6964148525609,-66.51732623528567zM52.004211744229785,-51.843873681014664L52.004211744229785,58.551942314747905L176.11045379267955,-59.5730633775092z" style="fill:rgb(238,238,238); fill-opacity: 0.54"></path><path d="M-48.54990905988217,37.96483257422468L-48.54990905988217,-12.233007645863427L33.51120618571198,8.08211538651731z" style="fill:rgb(255,187,187); fill-opacity: 0.4"></path><path d="M-184.6964148525609,-66.51732623528567L-184.6964148525609,72.87389536641285M-184.6964148525609,72.87389536641285L-111.26204987906719,84.94926872614782M-48.54990892347277,-12.233007654358849L-48.54990892347277,37.96483256572926M-48.54990892347277,37.96483256572926L-147.83489983018524,44.14818415277622M-48.54990892347277,37.96483256572926L-22.104581325037024,42.313439712899125M-48.54991026794333,-12.233007110794157L-48.54991026794333,37.96483310929394M-48.54991026794333,37.96483310929394L-22.104581930633657,42.313440377962486M52.00421174422978,-51.843873681014664L52.00421174422978,58.551942314747905M-48.54990892347277,-12.233007654358849L-147.83489983018524,-6.049656067311891M-48.54990892347277,-12.233007654358849L-22.104581325037024,-7.884400507188978M-48.54991026794333,-12.233007110794157L-22.104581930633657,-7.884399842125611" style="fill:none;stroke:rgb(0,0,0);stroke-width:1;stroke-linecap:round"></path><path d="M-22.10458146144642,42.313439721394545L-48.54990905988217,37.96483257422468L33.51120618571198,8.08211538651731zM-48.54990905988217,-12.233007645863427L-22.10458146144642,-7.8844004986935605L33.51120618571198,8.08211538651731z" style="fill:rgb(255,187,187); fill-opacity: 0.4"></path><path d="M-11.977058972354733,-60.62530446259764L-85.41142394584844,-72.70067782233261L-184.6964148525609,-66.51732623528567z" style="fill:rgb(238,238,238); fill-opacity: 0.54"></path><path d="M-184.6964148525609,-66.51732623528567L-111.26204987906719,-54.44195287555069" style="fill:none;stroke:rgb(0,0,0);stroke-width:1;stroke-linecap:round"></path><path d="M-22.104581325037017,42.31343971289913L-48.54990892347277,37.96483256572926L-48.54990892347277,-12.233007654358843z" style="fill:rgb(153,221,255); fill-opacity: 0.4"></path><path d="M-48.54990905988217,-12.233007645863427L-48.54990905988217,37.96483257422468L-22.10458146144642,42.313439721394545z" style="fill:rgb(255,187,187); fill-opacity: 0.4"></path><path d="M-111.2620498790672,84.94926872614782L-184.6964148525609,72.87389536641285L-85.41142394584844,66.6905437793659z" style="fill:rgb(238,238,238); fill-opacity: 0.54"></path><path d="M-22.10458146144642,-7.8844004986935605L-22.10458146144642,42.313439721394545L33.51120618571198,8.08211538651731z" style="fill:rgb(255,187,187); fill-opacity: 0.4"></path><path d="M-48.54990892347277,-12.233007654358843L-48.54990892347277,37.96483256572926L-147.83489983018524,-6.04965606731189z" style="fill:rgb(153,221,255); fill-opacity: 0.4"></path><path d="M-11.977058972354733,-60.62530446259764L-11.977058972354733,78.76591713910086L-85.41142394584844,-72.70067782233261z" style="fill:rgb(238,238,238); fill-opacity: 0.54"></path><path d="M-22.104581325037017,-7.8844005071889764L-22.104581325037017,42.31343971289913L-48.54990892347277,-12.233007654358843z" style="fill:rgb(153,221,255); fill-opacity: 0.4"></path><path d="M-48.54990905988217,-12.233007645863427L-22.10458146144642,42.313439721394545L-22.10458146144642,-7.8844004986935605z" style="fill:rgb(255,187,187); fill-opacity: 0.4"></path><path d="M-11.977058972354733,78.76591713910086L-111.2620498790672,84.94926872614782L-85.41142394584844,66.6905437793659z" style="fill:rgb(238,238,238); fill-opacity: 0.54"></path><path d="M-22.104581325037017,-7.8844005071889764L-48.54990892347277,-12.233007654358843L-147.83489983018524,-6.04965606731189zM-48.54990892347277,37.96483256572926L-147.83489983018524,44.14818415277622L-147.83489983018524,-6.04965606731189z" style="fill:rgb(153,221,255); fill-opacity: 0.4"></path><path d="M-121.38957223174948,48.49679129994609L-22.104581325037024,42.313439712899125M-22.104581325037024,-7.884400507188978L-22.104581325037024,42.313439712899125M-22.104581930633657,42.313440377962486L-22.104581930633657,-7.884399842125611" style="fill:none;stroke:rgb(0,0,0);stroke-width:1;stroke-linecap:round"></path><path d="M-184.6964148525609,-66.51732623528567L-184.6964148525609,72.87389536641285L-111.2620498790672,-54.44195287555069z" style="fill:rgb(238,238,238); fill-opacity: 0.54"></path><path d="M-121.38957223174948,-1.7010489201420205L-22.104581325037024,-7.884400507188978" style="fill:none;stroke:rgb(0,0,0);stroke-width:1;stroke-linecap:round"></path><path d="M-22.104581325037017,42.31343971289913L-121.3895722317495,48.49679129994609L-48.54990892347277,37.96483256572926zM-121.3895722317495,48.49679129994609L-147.83489983018524,44.14818415277622L-48.54990892347277,37.96483256572926z" style="fill:rgb(153,221,255); fill-opacity: 0.4"></path><path d="M-111.26204987906719,84.94926872614782L-11.977058972354726,78.76591713910086M-11.977058972354726,-60.62530446259765L-11.977058972354726,78.76591713910086M-147.83489983018524,-6.049656067311891L-147.83489983018524,44.14818415277622M-147.83489983018524,44.14818415277622L-121.38957223174948,48.49679129994609" style="fill:none;stroke:rgb(0,0,0);stroke-width:1;stroke-linecap:round"></path><path d="M-121.3895722317495,48.49679129994609L-22.104581325037017,42.31343971289913L-22.104581325037017,-7.8844005071889764z" style="fill:rgb(153,221,255); fill-opacity: 0.4"></path><path d="M-147.83489983018524,-6.049656067311891L-121.38957223174948,-1.7010489201420205M-111.26204987906719,-54.44195287555069L-11.977058972354726,-60.62530446259765" style="fill:none;stroke:rgb(0,0,0);stroke-width:1;stroke-linecap:round"></path><path d="M-111.2620498790672,-54.44195287555069L-11.977058972354733,-60.62530446259764L-184.6964148525609,-66.51732623528567z" style="fill:rgb(238,238,238); fill-opacity: 0.54"></path><path d="M-121.3895722317495,-1.7010489201420218L-22.104581325037017,-7.8844005071889764L-147.83489983018524,-6.04965606731189zM-147.83489983018524,-6.04965606731189L-147.83489983018524,44.14818415277622L-121.3895722317495,-1.7010489201420218z" style="fill:rgb(153,221,255); fill-opacity: 0.4"></path><path d="M-111.2620498790672,84.94926872614782L-11.977058972354733,78.76591713910086L-11.977058972354733,-60.62530446259764zM-184.6964148525609,72.87389536641285L-111.2620498790672,84.94926872614782L-111.2620498790672,-54.44195287555069z" style="fill:rgb(238,238,238); fill-opacity: 0.54"></path><path d="M-121.3895722317495,-1.7010489201420218L-121.3895722317495,48.49679129994609L-22.104581325037017,-7.8844005071889764zM-147.83489983018524,44.14818415277622L-121.3895722317495,48.49679129994609L-121.3895722317495,-1.7010489201420218z" style="fill:rgb(153,221,255); fill-opacity: 0.4"></path><path d="M-121.38957223174948,-1.7010489201420205L-121.38957223174948,48.49679129994609" style="fill:none;stroke:rgb(0,0,0);stroke-width:1;stroke-linecap:round"></path><path d="M-111.2620498790672,-54.44195287555069L-111.2620498790672,84.94926872614782L-11.977058972354733,-60.62530446259764z" style="fill:rgb(238,238,238); fill-opacity: 0.54"></path><path d="M-111.26204987906719,-54.44195287555069L-111.26204987906719,84.94926872614782" style="fill:none;stroke:rgb(0,0,0);stroke-width:1;stroke-linecap:round"></path></svg>